<svg width="16" height="27" viewBox="0 0 16 27" fill="none" xmlns="http://www.w3.org/2000/svg">
<path d="M7.90577 0C7.90577 0 0 12.5864 0 17.5929C0 22.5995 3.58203 26.6596 8 26.6596C12.418 26.6599 16 22.6002 16 17.5929C16 12.5857 7.9052 0 7.9052 0H7.90577ZM5.12601 24.1165C5.03266 24.258 4.88919 24.3331 4.74417 24.3331C4.64461 24.3331 4.54416 24.2982 4.45879 24.2253C2.44491 22.5159 1.56969 19.372 1.53359 19.2391C1.45598 18.9541 1.59679 18.6518 1.84802 18.5636C2.10103 18.4741 2.36645 18.635 2.44474 18.9194C2.45273 18.9491 3.2683 21.864 5.03071 23.3603C5.24114 23.5389 5.28416 23.8775 5.12606 24.1165L5.12601 24.1165ZM6.93877 25.2941C6.92768 25.2941 6.91681 25.2939 6.90573 25.2931C6.5383 25.2642 6.17487 25.1828 5.82564 25.0504C5.57619 24.9556 5.44137 24.6493 5.52496 24.3665C5.60923 24.0833 5.87931 23.9318 6.12855 24.0258C6.40107 24.1291 6.68446 24.1929 6.97096 24.2153C7.2335 24.2359 7.43196 24.4937 7.414 24.7913C7.39692 25.076 7.18693 25.2941 6.9388 25.2941L6.93877 25.2941Z" fill="#9D4C6C"/>
</svg>
